<svg width="118" height="92" viewBox="0 0 118 92" fill="none" xmlns="http://www.w3.org/2000/svg">
<path d="M26.4829 36.8001C26.0198 35.0022 25.6274 33.1815 25.3026 31.3413C21.1538 29.6212 18.2304 25.506 18.2304 20.6995C18.2304 16.1721 20.8258 12.2581 24.595 10.3822C24.6658 9.72012 24.7462 9.0548 24.8363 8.38948C25.219 5.53024 25.7625 2.72942 26.454 0C12.8112 6.96798 2.67729 20.3587 0.451748 36.8001C0.448532 36.8131 0.448532 36.8261 0.445316 36.8391C-3.14064 63.4388 15.323 87.9322 41.6822 91.5508C51.7743 92.9366 61.5642 91.0575 70 86.7184C48.3395 77.9751 32.2494 59.2359 26.4829 36.8001Z" fill="url(#paint0_linear_6_395)"/>
<path d="M86.1296 0H69.4475H34.4129C32.2638 0 30.4135 1.51894 29.9573 3.64157C29.5782 5.40718 29.2666 7.202 29.0225 9.02279C29.0128 9.08446 29.0096 9.14612 29 9.20779C29.0707 9.20779 29.1446 9.2013 29.2152 9.2013C35.5019 9.2013 40.5968 14.3488 40.5968 20.7005C40.5968 26.8607 35.8039 31.8881 29.7806 32.1867C30.0665 33.592 30.391 34.9844 30.7604 36.3638C30.799 36.5098 30.8375 36.6559 30.8793 36.8019C31.7466 39.9567 32.8356 43.0303 34.1302 46L43.2342 36.8019H95.4135H113.448C115.963 36.8019 118 34.741 118 32.2029C118 14.417 103.734 0 86.1296 0Z" fill="url(#paint1_linear_6_395)"/>
<path d="M28.5 28C32.0899 28 35 24.6421 35 20.5C35 16.3579 32.0899 13 28.5 13C24.9101 13 22 16.3579 22 20.5C22 24.6421 24.9101 28 28.5 28Z" fill="#222222"/>
<defs>
<linearGradient id="paint0_linear_6_395" x1="35" y1="0" x2="35" y2="92" gradientUnits="userSpaceOnUse">
<stop stop-color="#8535D4"/>
<stop offset="1" stop-color="#006CDB"/>
</linearGradient>
<linearGradient id="paint1_linear_6_395" x1="32.7667" y1="23.1033" x2="114.979" y2="23.1586" gradientUnits="userSpaceOnUse">
<stop stop-color="#F37021"/>
<stop offset="1" stop-color="#FCB711"/>
</linearGradient>
</defs>
</svg>
