<svg width="138" height="106" viewBox="0 0 138 106" fill="none" xmlns="http://www.w3.org/2000/svg">
<path d="M30.7148 42.2241C30.1776 40.1612 29.7226 38.0721 29.3459 35.9607C24.5341 33.9871 21.1435 29.2653 21.1435 23.7504C21.1435 18.5557 24.1537 14.0648 28.5252 11.9124C28.6073 11.1528 28.7006 10.3894 28.805 9.62602C29.2489 6.34535 29.8792 3.13171 30.6812 0C14.8584 7.99499 3.10511 23.3594 0.523936 42.2241C0.520206 42.239 0.520206 42.2539 0.516476 42.2688C-3.6425 72.7891 17.7716 100.893 48.3429 105.045C60.0477 106.635 71.4019 104.479 81.1858 99.4999C56.064 89.468 37.4027 67.9668 30.7148 42.2241Z" fill="white"/>
<path d="M100.375 0H81.0002H40.3102C37.8142 0 35.6652 1.74637 35.1354 4.18682C34.6951 6.21679 34.3332 8.28035 34.0496 10.3738C34.0385 10.4447 34.0347 10.5156 34.0235 10.5865C34.1056 10.5865 34.1914 10.579 34.2735 10.579C41.575 10.579 47.4923 16.4973 47.4923 23.7999C47.4923 30.8825 41.9257 36.6626 34.9302 37.006C35.2622 38.6217 35.639 40.2226 36.0681 41.8085C36.1129 41.9764 36.1576 42.1443 36.2061 42.3122C37.2135 45.9393 38.4783 49.4731 39.9819 52.8875L50.5555 42.3122H111.158H132.103C135.025 42.3122 137.39 39.9427 137.39 37.0246C137.39 16.5756 120.821 0 100.375 0Z" fill="white"/>
<path d="M34.2398 31.6076C38.6404 31.6076 42.2077 28.0944 42.2077 23.7605C42.2077 19.4267 38.6404 15.9134 34.2398 15.9134C29.8393 15.9134 26.272 19.4267 26.272 23.7605C26.272 28.0944 29.8393 31.6076 34.2398 31.6076Z" fill="white"/>
</svg>
