<svg width="220" height="220" viewBox="0 0 220 220" fill="none" xmlns="http://www.w3.org/2000/svg">
<path fill-rule="evenodd" clip-rule="evenodd" d="M10 48.8889C10 19.7199 10.3123 10 48.8889 10C87.4654 10 87.7778 19.7199 87.7778 48.8889C87.7778 78.0579 87.9008 87.7778 48.8889 87.7778C9.87697 87.7778 10 78.0579 10 48.8889Z" stroke="white" stroke-width="20" stroke-linecap="round" stroke-linejoin="round"/>
<path fill-rule="evenodd" clip-rule="evenodd" d="M132.222 48.8889C132.222 19.7199 132.535 10 171.111 10C209.688 10 210 19.7199 210 48.8889C210 78.0579 210.123 87.7778 171.111 87.7778C132.099 87.7778 132.222 78.0579 132.222 48.8889Z" stroke="white" stroke-width="20" stroke-linecap="round" stroke-linejoin="round"/>
<path fill-rule="evenodd" clip-rule="evenodd" d="M10 171.111C10 141.942 10.3123 132.222 48.8889 132.222C87.4654 132.222 87.7778 141.942 87.7778 171.111C87.7778 200.28 87.9008 210 48.8889 210C9.87697 210 10 200.28 10 171.111Z" stroke="white" stroke-width="20" stroke-linecap="round" stroke-linejoin="round"/>
<path fill-rule="evenodd" clip-rule="evenodd" d="M132.222 171.111C132.222 141.942 132.535 132.222 171.111 132.222C209.688 132.222 210 141.942 210 171.111C210 200.28 210.123 210 171.111 210C132.099 210 132.222 200.28 132.222 171.111Z" stroke="white" stroke-width="20" stroke-linecap="round" stroke-linejoin="round"/>
</svg>
