<svg width="209" height="221" viewBox="0 0 209 221" fill="none" xmlns="http://www.w3.org/2000/svg">
<path fill-rule="evenodd" clip-rule="evenodd" d="M147.775 210.278H60.9177C29.0131 210.278 4.53698 198.754 11.4893 152.373L19.5845 89.5163C23.8702 66.3735 38.6321 57.5164 51.5844 57.5164H157.489C170.632 57.5164 184.536 67.0402 189.489 89.5163L197.584 152.373C203.489 193.516 179.679 210.278 147.775 210.278Z" stroke="white" stroke-width="20" stroke-linecap="round" stroke-linejoin="round"/>
<path d="M149.203 55.231C149.203 30.4045 129.077 10.2784 104.251 10.2784C92.2959 10.2281 80.8131 14.9417 72.3417 23.3774C63.8703 31.8131 59.1082 43.2758 59.1082 55.231" stroke="white" stroke-width="20" stroke-linecap="round" stroke-linejoin="round"/>
<path d="M135.108 102.088H134.632" stroke="white" stroke-width="20" stroke-linecap="round" stroke-linejoin="round"/>
<path d="M74.4415 102.088H73.9653" stroke="white" stroke-width="20" stroke-linecap="round" stroke-linejoin="round"/>
</svg>
